# xmcd
#
# Track frame offsets: 
#        150
#        15175
#        29330
#        43500
#        56482
#        78560
#
# Disc length: 1210 seconds
#
# Revision: 0
# Processed by: cddbd v1.4PL0 Copyright (c) Steve Scherf et al.
# Submitted via: ExactAudioCopy v0.90a11
#
DISCID=3b04b806
DTITLE=Black Top Records - Black Top Blues Cd Single
DYEAR=1900
DGENRE=
TTITLE0=Can't Stop Loving - Anson Funderburgh and The Rockets
TTITLE1=You Were a Long Time Coming - Nappy Brown
TTITLE2=Coconut Milk - Ron Levy's Wild Kingdom II
TTITLE3=Baby, You Can Get Your Gun! - Snooks Eaglin
TTITLE4=Your Love Was Never There - Earl King and Roomful of Blues
TTITLE5=Can't Call You No More - Hubert Sumlin's Blues Party
EXTD=
EXTT0=
EXTT1=
EXTT2=
EXTT3=
EXTT4=
EXTT5=
PLAYORDER=
